<svg width="24" height="24" viewBox="0 0 24 24" fill="none" xmlns="http://www.w3.org/2000/svg">
<path d="M6.0006 16.6667C5.4732 16.6667 4.95765 16.8231 4.51914 17.1161C4.08062 17.4092 3.73884 17.8256 3.53701 18.3129C3.33519 18.8002 3.28238 19.3363 3.38527 19.8536C3.48816 20.3709 3.74213 20.846 4.11505 21.219C4.48798 21.5919 4.96312 21.8459 5.48038 21.9488C5.99764 22.0517 6.5338 21.9988 7.02105 21.797C7.5083 21.5952 7.92476 21.2534 8.21777 20.8149C8.51078 20.3763 8.66717 19.8608 8.66717 19.3334C8.66717 18.6261 8.38623 17.9479 7.88615 17.4478C7.38607 16.9477 6.70782 16.6667 6.0006 16.6667ZM6.0006 20.6667C5.7369 20.6667 5.47913 20.5885 5.25987 20.442C5.04061 20.2955 4.86972 20.0872 4.76881 19.8436C4.66789 19.6 4.64149 19.3319 4.69294 19.0733C4.74438 18.8146 4.87136 18.577 5.05783 18.3906C5.24429 18.2041 5.48186 18.0771 5.74049 18.0257C5.99912 17.9742 6.2672 18.0006 6.51083 18.1015C6.75445 18.2025 6.96268 18.3734 7.10919 18.5926C7.25569 18.8119 7.33388 19.0697 7.33388 19.3334C7.33388 19.687 7.19341 20.0261 6.94337 20.2762C6.69334 20.5262 6.35421 20.6667 6.0006 20.6667ZM15.3336 16.6667C14.8062 16.6667 14.2906 16.8231 13.8521 17.1161C13.4136 17.4092 13.0718 17.8256 12.87 18.3129C12.6682 18.8002 12.6154 19.3363 12.7183 19.8536C12.8211 20.3709 13.0751 20.846 13.448 21.219C13.821 21.5919 14.2961 21.8459 14.8134 21.9488C15.3306 22.0517 15.8668 21.9988 16.354 21.797C16.8413 21.5952 17.2577 21.2534 17.5508 20.8149C17.8438 20.3763 18.0001 19.8608 18.0001 19.3334C18.0001 18.6261 17.7192 17.9479 17.2191 17.4478C16.7191 16.9477 16.0408 16.6667 15.3336 16.6667ZM15.3336 20.6667C15.0699 20.6667 14.8121 20.5885 14.5929 20.442C14.3736 20.2955 14.2027 20.0872 14.1018 19.8436C14.0009 19.6 13.9745 19.3319 14.0259 19.0733C14.0774 18.8146 14.2043 18.577 14.3908 18.3906C14.5773 18.2041 14.8148 18.0771 15.0735 18.0257C15.3321 17.9742 15.6002 18.0006 15.8438 18.1015C16.0874 18.2025 16.2957 18.3734 16.4422 18.5926C16.5887 18.8119 16.6669 19.0697 16.6669 19.3334C16.6669 19.687 16.5264 20.0261 16.2764 20.2762C16.0263 20.5262 15.6872 20.6667 15.3336 20.6667ZM21.3334 2.00028H19.3334C19.1811 1.99585 19.0319 2.0437 18.9106 2.13589C18.7894 2.22808 18.7033 2.35903 18.6668 2.50694L18.1468 4.66691H2.66739C2.57162 4.66608 2.47679 4.68589 2.38936 4.72501C2.30193 4.76412 2.22396 4.82161 2.16075 4.89357C2.09838 4.96624 2.05241 5.05149 2.02595 5.14353C1.99949 5.23556 1.99317 5.33221 2.00742 5.4269L3.3407 14.7601C3.36319 14.9191 3.44234 15.0647 3.56359 15.1701C3.68485 15.2754 3.84006 15.3334 4.00068 15.3334H17.3335C17.4953 15.335 17.6521 15.2777 17.7747 15.1723C17.8974 15.0668 17.9775 14.9203 18.0001 14.7601L19.3334 5.46023L19.8534 3.3336H21.3334C21.5102 3.3336 21.6797 3.26336 21.8047 3.13834C21.9298 3.01332 22 2.84375 22 2.66694C22 2.49013 21.9298 2.32056 21.8047 2.19554C21.6797 2.07052 21.5102 2.00028 21.3334 2.00028ZM16.7535 14.0001H4.58065L3.43403 6.00023H17.9002L16.7535 14.0001Z" fill="black"/>
</svg>
