<svg width="48" height="48" viewBox="0 0 48 48" fill="none" xmlns="http://www.w3.org/2000/svg">
<path d="M44.8915 14.0721H32.9551L2.98389 38.893H14.9144L44.8915 14.0721Z" fill="black"/>
<path d="M42.0912 0H29.9712L0 24.8209H12.1199L42.0912 0Z" fill="black"/>
<path d="M48 28.272H35.1578L22.3392 38.892H35.1815L48 28.272Z" fill="black"/>
<path d="M6.43576 46.9764C6.51273 46.9764 6.55418 46.9876 6.56602 47.0042C6.57786 47.0209 6.56602 47.0654 6.5305 47.1377L6.22261 47.8383C6.18709 47.9106 6.16341 47.955 6.1338 47.9717C6.11012 47.9884 6.05684 47.9995 5.97987 47.9995H3.19707C3.1201 47.9995 3.07866 47.9884 3.06682 47.9717C3.05498 47.955 3.06682 47.9106 3.10234 47.8383L5.13318 43.1176C5.16871 43.0454 5.1924 43.0009 5.222 42.9842C5.24568 42.9675 5.29897 42.9564 5.37594 42.9564H8.08175C8.15872 42.9564 8.20017 42.9675 8.21201 42.9842C8.22385 43.0009 8.21201 43.0454 8.17649 43.1176L7.8686 43.8127C7.83308 43.885 7.8094 43.9294 7.77979 43.9517C7.75611 43.9684 7.70283 43.9795 7.62586 43.9795H6.07459L5.66014 44.9414H7.06338C7.14035 44.9414 7.18771 44.9525 7.19955 44.9692C7.2114 44.9859 7.20547 45.0304 7.16995 45.1026L6.86206 45.7977C6.82654 45.8699 6.80286 45.9144 6.77325 45.9367C6.74957 45.9534 6.69629 45.9645 6.61932 45.9645H5.21607L4.77794 46.982H6.43576V46.9764Z" fill="black"/>
<path d="M11.4627 47.8324C11.4272 47.9047 11.3976 47.9492 11.3739 47.9658C11.3502 47.9825 11.2969 47.9936 11.22 47.9936H10.2371C10.1601 47.9936 10.1187 47.9825 10.1069 47.9658C10.095 47.9492 10.1069 47.9047 10.1424 47.8324L11.6877 44.246C11.818 43.9402 11.9364 43.7011 12.037 43.5288C12.1377 43.3564 12.2502 43.223 12.3864 43.134C12.5166 43.045 12.6824 42.9894 12.8719 42.9616C13.0673 42.9394 13.3219 42.9283 13.6416 42.9283H14.6008C15.2639 42.9283 15.5895 43.134 15.5895 43.5454C15.5895 43.7401 15.5303 43.968 15.406 44.246L13.8607 47.8324C13.8311 47.9047 13.8014 47.9492 13.7718 47.9658C13.7482 47.9825 13.6949 47.9936 13.6179 47.9936H12.635C12.5581 47.9936 12.5166 47.9825 12.5048 47.9658C12.4929 47.9492 12.5048 47.9047 12.5403 47.8324L13.1502 46.4201H12.0667L11.4627 47.8324ZM13.5824 45.4026L14.0501 44.3183C14.1153 44.1571 14.1389 44.057 14.1093 44.0181C14.0857 43.9736 13.9909 43.9569 13.8251 43.9569H13.5054C13.4225 43.9569 13.3515 43.9625 13.2982 43.968C13.2449 43.9736 13.1975 43.9903 13.162 44.0181C13.1265 44.0459 13.0909 44.0792 13.0613 44.1293C13.0317 44.1793 13.0021 44.2405 12.9666 44.3183L12.5048 45.4026H13.5824V45.4026Z" fill="black"/>
<path d="M21.2261 46.9756C21.3031 46.9756 21.3445 46.9867 21.3564 47.0034C21.3682 47.02 21.3564 47.0645 21.3209 47.1368L21.0248 47.8374C20.9893 47.9097 20.9656 47.9542 20.936 47.9708C20.9123 47.9875 20.859 47.9987 20.7821 47.9987H17.8098C17.7328 47.9987 17.6914 47.9875 17.6796 47.9708C17.6677 47.9542 17.6795 47.9097 17.7151 47.8374L17.9697 47.2313C18.0052 47.1535 18.0466 47.0701 18.1118 46.9811C18.171 46.8922 18.242 46.8087 18.319 46.7365L21.2202 43.973H19.6689C19.592 43.973 19.5505 43.9619 19.5387 43.9452C19.5269 43.9286 19.5387 43.8841 19.5742 43.8118L19.8703 43.1223C19.8999 43.05 19.9235 43.0055 19.9531 42.9889C19.9828 42.9722 20.0301 42.9611 20.1071 42.9611H22.8899C22.9668 42.9611 23.0083 42.9722 23.0201 42.9889C23.032 43.0055 23.0201 43.05 22.9846 43.1223L22.73 43.7173C22.6945 43.7951 22.6471 43.8785 22.5879 43.9675C22.5287 44.0564 22.4577 44.1398 22.3807 44.2121L19.4676 46.9756H21.2261Z" fill="black"/>
<path d="M28.1238 46.9756C28.2008 46.9756 28.2422 46.9867 28.254 47.0034C28.2659 47.02 28.254 47.0645 28.2185 47.1368L27.9225 47.8374C27.8869 47.9097 27.8633 47.9542 27.8337 47.9708C27.81 47.9875 27.7567 47.9987 27.6797 47.9987H24.7075C24.6305 47.9987 24.589 47.9875 24.5772 47.9708C24.5654 47.9542 24.5772 47.9097 24.6127 47.8374L24.8673 47.2313C24.9029 47.1535 24.9443 47.0701 25.0094 46.9811C25.0686 46.8922 25.1397 46.8087 25.2167 46.7365L28.1179 43.973H26.5666C26.4896 43.973 26.4482 43.9619 26.4363 43.9452C26.4245 43.9286 26.4363 43.8841 26.4719 43.8118L26.7679 43.1223C26.7975 43.05 26.8212 43.0055 26.8508 42.9889C26.8804 42.9722 26.9278 42.9611 27.0047 42.9611H29.7875C29.8645 42.9611 29.906 42.9722 29.9178 42.9889C29.9296 43.0055 29.9178 43.05 29.8823 43.1223L29.6277 43.7173C29.5921 43.7951 29.5448 43.8785 29.4856 43.9675C29.4264 44.0564 29.3553 44.1398 29.2783 44.2121L26.3653 46.9756H28.1238Z" fill="black"/>
<path d="M34.9803 46.9764C35.0572 46.9764 35.1046 46.9876 35.1105 47.0042C35.1224 47.0209 35.1105 47.0654 35.075 47.1377L34.779 47.8383C34.7434 47.9106 34.7197 47.955 34.6901 47.9717C34.6665 47.9884 34.6132 47.9995 34.5362 47.9995H31.9192C31.8422 47.9995 31.8008 47.9884 31.7889 47.9717C31.7771 47.955 31.7889 47.9106 31.8245 47.8383L33.8553 43.1176C33.8908 43.0454 33.9145 43.0009 33.9441 42.9842C33.9678 42.9675 34.0211 42.9564 34.0981 42.9564H35.0809C35.1579 42.9564 35.1993 42.9675 35.2112 42.9842C35.223 43.0009 35.2112 43.0454 35.1756 43.1176L33.5178 46.9764H34.9803Z" fill="black"/>
</svg>
