<svg width="64" height="64" viewBox="0 0 64 64" fill="none" xmlns="http://www.w3.org/2000/svg">
<path d="M59.8554 18.7628H43.9402L3.97852 51.8574H19.8858L59.8554 18.7628Z" fill="black"/>
<path d="M56.1216 0H39.9617L0 33.0946H16.1599L56.1216 0Z" fill="black"/>
<path d="M64 37.696H46.877L29.7855 51.856H46.9086L64 37.696Z" fill="black"/>
<path d="M8.58104 62.6353C8.68367 62.6353 8.73893 62.6501 8.75472 62.6723C8.77051 62.6946 8.75472 62.7539 8.70735 62.8503L8.29684 63.7844C8.24947 63.8808 8.2179 63.9401 8.17843 63.9623C8.14685 63.9846 8.0758 63.9994 7.97317 63.9994H4.26278C4.16015 63.9994 4.1049 63.9846 4.08911 63.9623C4.07332 63.9401 4.08911 63.8808 4.13648 63.7844L6.84426 57.4902C6.89163 57.3938 6.92322 57.3345 6.96269 57.3123C6.99427 57.29 7.06531 57.2752 7.16794 57.2752H10.7757C10.8783 57.2752 10.9336 57.29 10.9494 57.3123C10.9652 57.3345 10.9494 57.3938 10.902 57.4902L10.4915 58.4169C10.4441 58.5133 10.4126 58.5726 10.3731 58.6023C10.3415 58.6245 10.2705 58.6393 10.1678 58.6393H8.09948L7.54687 59.9219H9.41786C9.52049 59.9219 9.58364 59.9367 9.59943 59.9589C9.61522 59.9812 9.60732 60.0405 9.55995 60.1369L9.14944 61.0636C9.10207 61.16 9.0705 61.2193 9.03103 61.2489C8.99945 61.2712 8.9284 61.286 8.82578 61.286H6.95479L6.3706 62.6427H8.58104V62.6353Z" fill="black"/>
<path d="M15.2837 63.7765C15.2363 63.8729 15.1968 63.9322 15.1652 63.9545C15.1337 63.9767 15.0626 63.9915 14.96 63.9915H13.6495C13.5469 63.9915 13.4916 63.9767 13.4758 63.9545C13.46 63.9322 13.4758 63.8729 13.5232 63.7765L15.5836 58.9947C15.7573 58.587 15.9152 58.2682 16.0494 58.0384C16.1836 57.8085 16.3336 57.6306 16.5152 57.512C16.6889 57.3934 16.9099 57.3192 17.1625 57.2822C17.423 57.2525 17.7625 57.2377 18.1888 57.2377H19.4677C20.3519 57.2377 20.7861 57.512 20.7861 58.0606C20.7861 58.3201 20.7071 58.6241 20.5414 58.9947L18.4809 63.7765C18.4414 63.8729 18.402 63.9322 18.3625 63.9545C18.3309 63.9767 18.2599 63.9915 18.1572 63.9915H16.8467C16.7441 63.9915 16.6889 63.9767 16.6731 63.9545C16.6573 63.9322 16.6731 63.8729 16.7204 63.7765L17.5336 61.8935H16.0889L15.2837 63.7765ZM18.1099 60.5368L18.7335 59.0911C18.8204 58.8761 18.8519 58.7427 18.8125 58.6908C18.7809 58.6315 18.6546 58.6092 18.4335 58.6092H18.0072C17.8967 58.6092 17.802 58.6166 17.7309 58.6241C17.6599 58.6315 17.5967 58.6537 17.5494 58.6908C17.502 58.7278 17.4546 58.7723 17.4151 58.839C17.3757 58.9058 17.3362 58.9873 17.2888 59.0911L16.6731 60.5368H18.1099V60.5368Z" fill="black"/>
<path d="M28.3015 62.6341C28.4041 62.6341 28.4593 62.6489 28.4751 62.6712C28.4909 62.6934 28.4751 62.7527 28.4278 62.8491L28.033 63.7832C27.9857 63.8796 27.9541 63.9389 27.9146 63.9611C27.8831 63.9834 27.812 63.9982 27.7094 63.9982H23.7464C23.6437 63.9982 23.5885 63.9834 23.5727 63.9611C23.5569 63.9389 23.5727 63.8796 23.6201 63.7832L23.9595 62.9751C24.0069 62.8713 24.0622 62.7601 24.149 62.6415C24.2279 62.5229 24.3227 62.4117 24.4253 62.3153L28.2936 58.6307H26.2252C26.1226 58.6307 26.0673 58.6159 26.0516 58.5936C26.0358 58.5714 26.0516 58.5121 26.0989 58.4157L26.4936 57.4964C26.5331 57.4 26.5647 57.3407 26.6042 57.3185C26.6436 57.2963 26.7068 57.2814 26.8094 57.2814H30.5198C30.6224 57.2814 30.6777 57.2963 30.6935 57.3185C30.7093 57.3407 30.6935 57.4 30.6461 57.4964L30.3066 58.2897C30.2593 58.3935 30.1961 58.5047 30.1172 58.6233C30.0382 58.7419 29.9435 58.8531 29.8409 58.9495L25.9568 62.6341H28.3015Z" fill="black"/>
<path d="M37.4984 62.6341C37.601 62.6341 37.6562 62.6489 37.672 62.6712C37.6878 62.6934 37.672 62.7527 37.6247 62.8491L37.2299 63.7832C37.1826 63.8796 37.151 63.9389 37.1115 63.9611C37.08 63.9834 37.0089 63.9982 36.9063 63.9982H32.9433C32.8406 63.9982 32.7854 63.9834 32.7696 63.9611C32.7538 63.9389 32.7696 63.8796 32.817 63.7832L33.1564 62.9751C33.2038 62.8713 33.2591 62.7601 33.3459 62.6415C33.4248 62.5229 33.5196 62.4117 33.6222 62.3153L37.4905 58.6307H35.4221C35.3195 58.6307 35.2642 58.6159 35.2485 58.5936C35.2327 58.5714 35.2485 58.5121 35.2958 58.4157L35.6905 57.4964C35.73 57.4 35.7616 57.3407 35.8011 57.3185C35.8405 57.2963 35.9037 57.2814 36.0063 57.2814H39.7167C39.8193 57.2814 39.8746 57.2963 39.8904 57.3185C39.9062 57.3407 39.8904 57.4 39.843 57.4964L39.5035 58.2897C39.4562 58.3935 39.393 58.5047 39.3141 58.6233C39.2351 58.7419 39.1404 58.8531 39.0378 58.9495L35.1537 62.6341H37.4984Z" fill="black"/>
<path d="M46.6403 62.6353C46.7429 62.6353 46.8061 62.6501 46.814 62.6723C46.8298 62.6946 46.814 62.7539 46.7666 62.8503L46.3719 63.7844C46.3245 63.8808 46.293 63.9401 46.2535 63.9623C46.2219 63.9846 46.1508 63.9994 46.0482 63.9994H42.5589C42.4562 63.9994 42.401 63.9846 42.3852 63.9623C42.3694 63.9401 42.3852 63.8808 42.4326 63.7844L45.1404 57.4902C45.1877 57.3938 45.2193 57.3345 45.2588 57.3123C45.2904 57.29 45.3614 57.2752 45.464 57.2752H46.7745C46.8771 57.2752 46.9324 57.29 46.9482 57.3123C46.964 57.3345 46.9482 57.3938 46.9008 57.4902L44.6904 62.6353H46.6403Z" fill="black"/>
</svg>
