<svg width="32" height="32" viewBox="0 0 32 32" fill="none" xmlns="http://www.w3.org/2000/svg">
<path d="M29.9277 9.38139H21.9701L1.98926 25.9287H9.94291L29.9277 9.38139Z" fill="black"/>
<path d="M28.0608 0H19.9808L0 16.5473H8.07996L28.0608 0Z" fill="black"/>
<path d="M32 18.848H23.4385L14.8928 25.928H23.4543L32 18.848Z" fill="black"/>
<path d="M4.29055 31.3176C4.34186 31.3176 4.36949 31.3251 4.37739 31.3362C4.38528 31.3473 4.37739 31.3769 4.35371 31.4251L4.14845 31.8922C4.12477 31.9404 4.10898 31.97 4.08924 31.9812C4.07345 31.9923 4.03793 31.9997 3.98662 31.9997H2.13142C2.08011 31.9997 2.05248 31.9923 2.04459 31.9812C2.03669 31.97 2.04459 31.9404 2.06827 31.8922L3.42216 28.7451C3.44585 28.6969 3.46164 28.6673 3.48137 28.6561C3.49716 28.645 3.53269 28.6376 3.584 28.6376H5.38788C5.43919 28.6376 5.46682 28.645 5.47472 28.6561C5.48261 28.6673 5.47472 28.6969 5.45103 28.7451L5.24578 29.2085C5.22209 29.2566 5.20631 29.2863 5.18657 29.3011C5.17078 29.3122 5.13526 29.3197 5.08394 29.3197H4.04977L3.77346 29.9609H4.70896C4.76027 29.9609 4.79185 29.9684 4.79974 29.9795C4.80764 29.9906 4.80369 30.0202 4.78001 30.0684L4.57475 30.5318C4.55107 30.58 4.53528 30.6096 4.51554 30.6245C4.49975 30.6356 4.46423 30.643 4.41292 30.643H3.47742L3.18533 31.3213H4.29055V31.3176Z" fill="black"/>
<path d="M7.64186 31.8883C7.61817 31.9365 7.59844 31.9661 7.58265 31.9772C7.56686 31.9884 7.53133 31.9958 7.48002 31.9958H6.82478C6.77347 31.9958 6.74584 31.9884 6.73795 31.9772C6.73005 31.9661 6.73794 31.9365 6.76163 31.8883L7.79185 29.4974C7.87869 29.2935 7.95763 29.1341 8.02474 29.0192C8.09184 28.9043 8.16684 28.8153 8.25762 28.756C8.34446 28.6967 8.45499 28.6596 8.5813 28.6411C8.71155 28.6263 8.88128 28.6189 9.09443 28.6189H9.73388C10.176 28.6189 10.3931 28.756 10.3931 29.0303C10.3931 29.16 10.3536 29.312 10.2707 29.4974L9.24048 31.8883C9.22075 31.9365 9.20101 31.9661 9.18127 31.9772C9.16548 31.9884 9.12996 31.9958 9.07864 31.9958H8.4234C8.37209 31.9958 8.34446 31.9884 8.33656 31.9772C8.32867 31.9661 8.33657 31.9365 8.36025 31.8883L8.76682 30.9467H8.04447L7.64186 31.8883ZM9.05496 30.2684L9.36679 29.5456C9.41021 29.4381 9.426 29.3713 9.40626 29.3454C9.39048 29.3157 9.32732 29.3046 9.2168 29.3046H9.00365C8.94838 29.3046 8.90102 29.3083 8.8655 29.312C8.82997 29.3157 8.79839 29.3269 8.77471 29.3454C8.75102 29.3639 8.72734 29.3862 8.7076 29.4195C8.68787 29.4529 8.66813 29.4937 8.64445 29.5456L8.33656 30.2684H9.05496V30.2684Z" fill="black"/>
<path d="M14.1507 31.317C14.202 31.317 14.2297 31.3245 14.2376 31.3356C14.2455 31.3467 14.2376 31.3763 14.2139 31.4245L14.0165 31.8916C13.9928 31.9398 13.9771 31.9694 13.9573 31.9806C13.9415 31.9917 13.906 31.9991 13.8547 31.9991H11.8732C11.8219 31.9991 11.7942 31.9917 11.7863 31.9806C11.7785 31.9694 11.7863 31.9398 11.81 31.8916L11.9798 31.4876C12.0034 31.4357 12.0311 31.3801 12.0745 31.3207C12.114 31.2614 12.1613 31.2058 12.2126 31.1576L14.1468 29.3154H13.1126C13.0613 29.3154 13.0337 29.3079 13.0258 29.2968C13.0179 29.2857 13.0258 29.256 13.0495 29.2079L13.2468 28.7482C13.2666 28.7 13.2823 28.6704 13.3021 28.6592C13.3218 28.6481 13.3534 28.6407 13.4047 28.6407H15.2599C15.3112 28.6407 15.3388 28.6481 15.3467 28.6592C15.3546 28.6704 15.3467 28.7 15.3231 28.7482L15.1533 29.1448C15.1296 29.1967 15.0981 29.2523 15.0586 29.3117C15.0191 29.371 14.9718 29.4266 14.9204 29.4748L12.9784 31.317H14.1507Z" fill="black"/>
<path d="M18.7492 31.317C18.8005 31.317 18.8281 31.3245 18.836 31.3356C18.8439 31.3467 18.836 31.3763 18.8123 31.4245L18.615 31.8916C18.5913 31.9398 18.5755 31.9694 18.5558 31.9806C18.54 31.9917 18.5045 31.9991 18.4531 31.9991H16.4716C16.4203 31.9991 16.3927 31.9917 16.3848 31.9806C16.3769 31.9694 16.3848 31.9398 16.4085 31.8916L16.5782 31.4876C16.6019 31.4357 16.6295 31.3801 16.6729 31.3207C16.7124 31.2614 16.7598 31.2058 16.8111 31.1576L18.7452 29.3154H17.7111C17.6598 29.3154 17.6321 29.3079 17.6242 29.2968C17.6163 29.2857 17.6242 29.256 17.6479 29.2079L17.8453 28.7482C17.865 28.7 17.8808 28.6704 17.9005 28.6592C17.9203 28.6481 17.9518 28.6407 18.0032 28.6407H19.8584C19.9097 28.6407 19.9373 28.6481 19.9452 28.6592C19.9531 28.6704 19.9452 28.7 19.9215 28.7482L19.7518 29.1448C19.7281 29.1967 19.6965 29.2523 19.657 29.3117C19.6176 29.371 19.5702 29.4266 19.5189 29.4748L17.5769 31.317H18.7492Z" fill="black"/>
<path d="M23.3202 31.3176C23.3715 31.3176 23.403 31.3251 23.407 31.3362C23.4149 31.3473 23.407 31.3769 23.3833 31.4251L23.1859 31.8922C23.1623 31.9404 23.1465 31.97 23.1267 31.9812C23.111 31.9923 23.0754 31.9997 23.0241 31.9997H21.2794C21.2281 31.9997 21.2005 31.9923 21.1926 31.9812C21.1847 31.97 21.1926 31.9404 21.2163 31.8922L22.5702 28.7451C22.5939 28.6969 22.6097 28.6673 22.6294 28.6561C22.6452 28.645 22.6807 28.6376 22.732 28.6376H23.3873C23.4386 28.6376 23.4662 28.645 23.4741 28.6561C23.482 28.6673 23.4741 28.6969 23.4504 28.7451L22.3452 31.3176H23.3202Z" fill="black"/>
</svg>
