<svg width="24" height="24" viewBox="0 0 24 24" fill="none" xmlns="http://www.w3.org/2000/svg">
<path d="M22.4458 7.03604H16.4776L1.49194 19.4465H7.45718L22.4458 7.03604Z" fill="black"/>
<path d="M21.0456 0H14.9856L0 12.4105H6.05997L21.0456 0Z" fill="black"/>
<path d="M24 14.136H17.5789L11.1696 19.446H17.5907L24 14.136Z" fill="black"/>
<path d="M3.21788 23.4882C3.25637 23.4882 3.27709 23.4938 3.28301 23.5021C3.28893 23.5105 3.28301 23.5327 3.26525 23.5689L3.11131 23.9192C3.09354 23.9553 3.0817 23.9775 3.0669 23.9859C3.05506 23.9942 3.02842 23.9998 2.98993 23.9998H1.59853C1.56005 23.9998 1.53933 23.9942 1.53341 23.9859C1.52749 23.9775 1.53341 23.9553 1.55117 23.9192L2.56659 21.5588C2.58435 21.5227 2.5962 21.5004 2.611 21.4921C2.62284 21.4838 2.64948 21.4782 2.68797 21.4782H4.04088C4.07936 21.4782 4.10009 21.4838 4.10601 21.4921C4.11193 21.5004 4.10601 21.5227 4.08824 21.5588L3.9343 21.9064C3.91654 21.9425 3.9047 21.9647 3.8899 21.9759C3.87806 21.9842 3.85141 21.9898 3.81293 21.9898H3.0373L2.83007 22.4707H3.53169C3.57017 22.4707 3.59386 22.4763 3.59978 22.4846C3.6057 22.493 3.60274 22.5152 3.58497 22.5513L3.43103 22.8988C3.41327 22.935 3.40143 22.9572 3.38663 22.9684C3.37479 22.9767 3.34814 22.9823 3.30966 22.9823H2.60804L2.38897 23.491H3.21788V23.4882Z" fill="black"/>
<path d="M5.73136 23.9162C5.7136 23.9523 5.6988 23.9746 5.68696 23.9829C5.67512 23.9913 5.64847 23.9968 5.60998 23.9968H5.11855C5.08007 23.9968 5.05935 23.9913 5.05343 23.9829C5.04751 23.9746 5.05343 23.9523 5.07119 23.9162L5.84386 22.123C5.90899 21.9701 5.9682 21.8506 6.01852 21.7644C6.06885 21.6782 6.1251 21.6115 6.19319 21.567C6.25831 21.5225 6.34121 21.4947 6.43594 21.4808C6.53364 21.4697 6.66093 21.4641 6.82079 21.4641H7.30038C7.63195 21.4641 7.79477 21.567 7.79477 21.7727C7.79477 21.87 7.76517 21.984 7.703 22.123L6.93033 23.9162C6.91553 23.9523 6.90072 23.9746 6.88592 23.9829C6.87408 23.9913 6.84744 23.9968 6.80895 23.9968H6.31752C6.27904 23.9968 6.25831 23.9913 6.25239 23.9829C6.24647 23.9746 6.2524 23.9523 6.27016 23.9162L6.57508 23.2101H6.03333L5.73136 23.9162ZM6.79119 22.7013L7.02506 22.1592C7.05763 22.0785 7.06947 22.0285 7.05467 22.009C7.04283 21.9868 6.99546 21.9785 6.91257 21.9785H6.7527C6.71126 21.9785 6.67574 21.9812 6.64909 21.984C6.62245 21.9868 6.59876 21.9951 6.581 22.009C6.56324 22.0229 6.54547 22.0396 6.53067 22.0646C6.51587 22.0897 6.50107 22.1203 6.48331 22.1592L6.25239 22.7013H6.79119V22.7013Z" fill="black"/>
<path d="M10.613 23.4878C10.6515 23.4878 10.6722 23.4934 10.6782 23.5017C10.6841 23.51 10.6782 23.5323 10.6604 23.5684L10.5124 23.9187C10.4946 23.9549 10.4828 23.9771 10.468 23.9854C10.4561 23.9938 10.4295 23.9993 10.391 23.9993H8.90487C8.86639 23.9993 8.84567 23.9938 8.83974 23.9854C8.83382 23.9771 8.83974 23.9549 8.85751 23.9187L8.9848 23.6157C9.00256 23.5768 9.02329 23.5351 9.05586 23.4906C9.08546 23.4461 9.12098 23.4044 9.15947 23.3683L10.6101 21.9865H9.83444C9.79595 21.9865 9.77524 21.981 9.76932 21.9726C9.7634 21.9643 9.76932 21.9421 9.78708 21.9059L9.9351 21.5612C9.9499 21.525 9.96174 21.5028 9.97654 21.4945C9.99135 21.4861 10.015 21.4806 10.0535 21.4806H11.4449C11.4834 21.4806 11.5041 21.4861 11.51 21.4945C11.516 21.5028 11.51 21.525 11.4923 21.5612L11.365 21.8587C11.3472 21.8976 11.3235 21.9393 11.2939 21.9838C11.2643 22.0282 11.2288 22.0699 11.1903 22.1061L9.73379 23.4878H10.613Z" fill="black"/>
<path d="M14.0619 23.4878C14.1004 23.4878 14.1211 23.4934 14.127 23.5017C14.1329 23.51 14.127 23.5323 14.1093 23.5684L13.9612 23.9187C13.9435 23.9549 13.9316 23.9771 13.9168 23.9854C13.905 23.9938 13.8783 23.9993 13.8399 23.9993H12.3537C12.3152 23.9993 12.2945 23.9938 12.2886 23.9854C12.2827 23.9771 12.2886 23.9549 12.3064 23.9187L12.4337 23.6157C12.4514 23.5768 12.4721 23.5351 12.5047 23.4906C12.5343 23.4461 12.5698 23.4044 12.6083 23.3683L14.0589 21.9865H13.2833C13.2448 21.9865 13.2241 21.981 13.2182 21.9726C13.2123 21.9643 13.2182 21.9421 13.2359 21.9059L13.384 21.5612C13.3988 21.525 13.4106 21.5028 13.4254 21.4945C13.4402 21.4861 13.4639 21.4806 13.5024 21.4806H14.8938C14.9323 21.4806 14.953 21.4861 14.9589 21.4945C14.9648 21.5028 14.9589 21.525 14.9411 21.5612L14.8138 21.8587C14.7961 21.8976 14.7724 21.9393 14.7428 21.9838C14.7132 22.0282 14.6777 22.0699 14.6392 22.1061L13.1826 23.4878H14.0619Z" fill="black"/>
<path d="M17.4901 23.4882C17.5286 23.4882 17.5523 23.4938 17.5552 23.5021C17.5611 23.5105 17.5552 23.5327 17.5375 23.5689L17.3894 23.9192C17.3717 23.9553 17.3598 23.9775 17.345 23.9859C17.3332 23.9942 17.3066 23.9998 17.2681 23.9998H15.9596C15.9211 23.9998 15.9004 23.9942 15.8944 23.9859C15.8885 23.9775 15.8944 23.9553 15.9122 23.9192L16.9276 21.5588C16.9454 21.5227 16.9572 21.5004 16.972 21.4921C16.9839 21.4838 17.0105 21.4782 17.049 21.4782H17.5404C17.5789 21.4782 17.5996 21.4838 17.6055 21.4921C17.6115 21.5004 17.6056 21.5227 17.5878 21.5588L16.7589 23.4882H17.4901Z" fill="black"/>
</svg>
