<svg width="50" height="50" viewBox="0 0 50 50" fill="none" xmlns="http://www.w3.org/2000/svg">
<g clip-path="url(#clip0_38_169)">
<path d="M35.1511 17.3206C34.9342 16.7588 34.602 16.2486 34.1759 15.823C33.7498 15.3973 33.2392 15.0656 32.6772 14.8493C31.9032 14.5626 31.0858 14.4111 30.2605 14.4014C28.8881 14.3389 28.4766 14.3232 25.0001 14.3232C21.5235 14.3232 21.1121 14.3389 19.7397 14.4014C18.9135 14.4108 18.0952 14.5623 17.3204 14.8493C16.7585 15.0662 16.2484 15.3984 15.8227 15.8245C15.3971 16.2506 15.0654 16.7612 14.849 17.3232C14.5624 18.0972 14.4109 18.9146 14.4011 19.7399C14.3386 21.1123 14.323 21.5238 14.323 25.0003C14.323 28.4769 14.3386 28.8883 14.4011 30.2607C14.4106 31.0869 14.5621 31.9052 14.849 32.68C15.066 33.2419 15.3982 33.752 15.8243 34.1777C16.2504 34.6033 16.7609 34.935 17.323 35.1514C18.0969 35.438 18.9144 35.5895 19.7397 35.5993C21.1121 35.6618 21.5235 35.6774 25.0001 35.6774C28.4766 35.6774 28.8881 35.6618 30.2605 35.5993C31.0866 35.5898 31.905 35.4383 32.6798 35.1514C33.2416 34.9344 33.7518 34.6022 34.1775 34.1761C34.6031 33.75 34.9348 33.2395 35.1511 32.6774C35.4378 31.9035 35.5893 31.086 35.599 30.2607C35.6615 28.8883 35.6772 28.4769 35.6772 25.0003C35.6772 21.5238 35.6615 21.1123 35.599 19.7399C35.5896 18.9138 35.4381 18.0954 35.1511 17.3206ZM25.0001 31.6878C23.6774 31.6878 22.3845 31.2956 21.2847 30.5608C20.185 29.8259 19.3278 28.7815 18.8216 27.5595C18.3155 26.3375 18.183 24.9929 18.4411 23.6957C18.6991 22.3984 19.336 21.2068 20.2713 20.2715C21.2066 19.3363 22.3982 18.6994 23.6954 18.4413C24.9927 18.1833 26.3373 18.3157 27.5593 18.8219C28.7813 19.328 29.8257 20.1852 30.5605 21.285C31.2954 22.3847 31.6876 23.6777 31.6876 25.0003C31.6876 26.774 30.983 28.475 29.7289 29.7291C28.4747 30.9833 26.7737 31.6878 25.0001 31.6878ZM31.9506 19.6123C31.6416 19.6123 31.3395 19.5207 31.0825 19.349C30.8256 19.1773 30.6253 18.9333 30.507 18.6477C30.3888 18.3622 30.3578 18.0481 30.4181 17.745C30.4784 17.4419 30.6272 17.1635 30.8457 16.945C31.0643 16.7264 31.3427 16.5776 31.6458 16.5173C31.9489 16.457 32.263 16.488 32.5485 16.6062C32.8341 16.7245 33.0781 16.9248 33.2498 17.1817C33.4215 17.4387 33.5131 17.7408 33.5131 18.0498C33.5131 18.4642 33.3485 18.8616 33.0555 19.1547C32.7624 19.4477 32.365 19.6123 31.9506 19.6123Z" fill="black"/>
<path d="M25.0001 29.3415C27.3976 29.3415 29.3412 27.3979 29.3412 25.0003C29.3412 22.6028 27.3976 20.6592 25.0001 20.6592C22.6025 20.6592 20.6589 22.6028 20.6589 25.0003C20.6589 27.3979 22.6025 29.3415 25.0001 29.3415Z" fill="black"/>
<path d="M25 0C20.0555 0 15.222 1.46622 11.1108 4.21326C6.99953 6.9603 3.79521 10.8648 1.90302 15.4329C0.0108321 20.0011 -0.484251 25.0277 0.480379 29.8773C1.44501 34.7268 3.82603 39.1814 7.32234 42.6777C10.8187 46.174 15.2732 48.555 20.1228 49.5196C24.9723 50.4843 29.9989 49.9892 34.5671 48.097C39.1353 46.2048 43.0397 43.0005 45.7868 38.8893C48.5338 34.778 50 29.9445 50 25C50 18.3696 47.3661 12.0107 42.6777 7.32233C37.9893 2.63392 31.6304 0 25 0V0ZM37.9427 30.3698C37.9204 31.4495 37.7152 32.5175 37.3359 33.5286C37.0015 34.3934 36.4901 35.1788 35.8345 35.8344C35.1788 36.4901 34.3934 37.0015 33.5287 37.3359C32.5176 37.7152 31.4495 37.9204 30.3698 37.9427C28.9792 38.0052 28.5365 38.0208 25 38.0208C21.4636 38.0208 21.0208 38.0052 19.6302 37.9427C18.5506 37.9204 17.4825 37.7152 16.4714 37.3359C15.6066 37.0015 14.8212 36.4901 14.1656 35.8344C13.5099 35.1788 12.9985 34.3934 12.6641 33.5286C12.2848 32.5175 12.0796 31.4495 12.0573 30.3698C11.9948 28.9792 11.9792 28.5365 11.9792 25C11.9792 21.4635 11.9948 21.0208 12.0573 19.6302C12.0796 18.5505 12.2848 17.4825 12.6641 16.4714C12.9985 15.6066 13.5099 14.8212 14.1656 14.1656C14.8212 13.5099 15.6066 12.9985 16.4714 12.6641C17.4825 12.2848 18.5506 12.0796 19.6302 12.0573C21.0208 11.9948 21.4636 11.9792 25 11.9792C28.5365 11.9792 28.9792 11.9948 30.3698 12.0573C31.4495 12.0796 32.5176 12.2848 33.5287 12.6641C34.3934 12.9985 35.1788 13.5099 35.8345 14.1656C36.4901 14.8212 37.0015 15.6066 37.3359 16.4714C37.7152 17.4825 37.9204 18.5505 37.9427 19.6302C38.0052 21.0208 38.0208 21.4635 38.0208 25C38.0208 28.5365 38.0052 28.9792 37.9427 30.3698Z" fill="black"/>
</g>
<defs>
<clipPath id="clip0_38_169">
<rect width="50" height="50" fill="white"/>
</clipPath>
</defs>
</svg>
