<svg width="50" height="50" viewBox="0 0 50 50" fill="none" xmlns="http://www.w3.org/2000/svg">
<g clip-path="url(#clip0_38_163)">
<path d="M50 25.0025C49.87 17.9068 47.3647 11.9812 42.4792 7.23072C37.5938 2.48025 31.7682 0.0650065 24.9975 0C17.7068 0.130013 11.7312 2.62026 7.07571 7.47075C2.42024 12.3212 0.0600052 18.1668 -0.00500107 25.0025C0.125011 32.0332 2.63026 37.9438 7.51575 42.7293C12.4012 47.5098 18.2268 49.935 24.9975 50C27.3427 50 29.683 49.64 32.0282 48.9249C31.5732 48.2098 31.1181 47.3947 30.6631 46.4846C30.143 45.3795 29.493 43.2943 28.7079 40.234C28.5129 39.3889 28.2178 38.2488 27.8278 36.8137C27.3727 37.5938 26.5927 38.3088 25.4825 38.9639C22.5523 40.329 19.4619 40.199 16.2066 38.5739C12.8213 36.6187 10.476 33.5934 9.17592 29.493C8.0058 25.1975 8.15082 21.2071 9.61596 17.5318C11.0811 13.8514 13.7014 11.2011 17.4767 9.57096C22.2272 8.20582 26.8527 8.35084 31.3431 10.011C35.8336 11.6712 38.9589 14.5215 40.7191 18.5569C41.1741 20.052 41.4491 21.5372 41.5492 23.0023C41.6492 24.4674 41.5992 25.8976 41.4041 27.2977C41.2091 28.6979 40.7191 29.953 39.939 31.0581C39.1589 32.1632 38.1138 33.0133 36.8137 33.5984C36.4886 33.7284 36.2286 33.7284 36.0336 33.5984C35.7736 33.4683 35.5136 32.9483 35.2535 32.0382C34.9935 31.1281 34.8935 30.5081 34.9585 30.183C35.0235 30.053 35.1535 29.823 35.3485 29.498C36.7137 27.2827 37.1737 24.9575 36.7137 22.5173C36.2586 20.077 35.2485 18.0068 33.6884 16.3166C31.2781 14.1664 28.4628 12.9963 25.2425 12.8013C22.0222 12.6063 19.2669 13.4864 16.9917 15.4365C15.7566 16.8667 14.9565 18.5919 14.6015 20.6121C14.2464 22.6323 14.2414 24.5675 14.6015 26.4226C14.9615 28.2778 15.5966 30.018 16.5067 31.6482C18.1368 34.1884 20.057 35.4886 22.2672 35.5536C23.5674 35.4886 24.6275 34.9835 25.4425 34.0384C26.2576 33.0933 26.5027 32.0032 26.1726 30.7681C26.0426 30.053 25.6526 28.6529 25.0025 26.5677C24.3524 24.4824 23.9924 22.9223 23.9274 21.8822C24.1224 19.4069 25.2625 18.1368 27.3477 18.0718C28.9779 18.2668 30.178 19.0019 30.9631 20.267C31.7482 21.5322 32.1682 22.9873 32.2332 24.6125C32.0382 26.5027 31.7432 27.8028 31.3531 28.5179C32.0682 31.4481 32.6233 33.7934 33.0133 35.5486C33.1433 36.0036 33.5033 37.4037 34.0884 39.749C34.6735 42.0942 34.9985 43.8844 35.0635 45.1195V47.8548C39.684 45.7046 43.3343 42.5993 45.9996 38.5289C48.6649 34.4584 50 29.948 50 25.0025Z" fill="black"/>
</g>
<defs>
<clipPath id="clip0_38_163">
<rect width="50" height="50" fill="white" transform="matrix(-1 0 0 1 50 0)"/>
</clipPath>
</defs>
</svg>
