<svg width="24" height="24" viewBox="0 0 24 24" fill="none" xmlns="http://www.w3.org/2000/svg">
<path d="M15.7294 14.7753C16.8441 13.4244 17.5482 11.6916 17.5482 9.78267C17.5482 5.49486 14.0572 2 9.77411 2C5.49102 2 2 5.49486 2 9.78267C2 14.0705 5.49102 17.5653 9.77411 17.5653C11.6516 17.5653 13.4118 16.8899 14.7613 15.7445L20.8045 21.7944C20.9512 21.9413 21.1272 22 21.3033 22C21.4793 22 21.6553 21.9413 21.802 21.7944C22.066 21.5301 22.066 21.0602 21.802 20.7959L15.7294 14.7753ZM9.74477 16.1557C6.22442 16.1557 3.3788 13.3069 3.3788 9.78267C3.3788 6.25844 6.22442 3.40969 9.74477 3.40969C13.2651 3.40969 16.1107 6.25844 16.1107 9.78267C16.1107 13.3069 13.2651 16.1557 9.74477 16.1557V16.1557Z" fill="black"/>
</svg>
