<svg width="50" height="50" viewBox="0 0 50 50" fill="none" xmlns="http://www.w3.org/2000/svg">
<path d="M25 0C11.1979 0 0 11.1979 0 25C0 38.8021 11.1979 50 25 50C38.8021 50 50 38.8021 50 25C50 11.1979 38.8021 0 25 0ZM37.5312 18.4271C37.5208 18.4375 37.5208 18.4375 37.5104 18.4479C37.5208 18.6042 37.5208 18.7604 37.5312 18.9167C37.5312 19.0833 37.5417 19.25 37.5417 19.4167C37.5417 29.6562 29.2396 37.9479 19.0104 37.9479C15.4896 37.9479 12.2083 36.9688 9.40625 35.2708C9.40625 35.2708 14.7187 35.7187 18.3542 32.3229C18.3542 32.3229 14.0208 31.7604 12.3854 27.7396C12.3854 27.7396 14.2708 28.0521 15.3958 27.7396C15.3958 27.7396 10.1875 25.6042 10.3125 21.2708C10.3125 21.2708 12.1354 22.0208 13.0104 22.0208C13.0104 22.0208 8.36458 18.8125 11.125 12.8542C11.125 12.8542 14.7083 19.7604 24.5 19.8229L24.5104 19.8125C24.4375 19.4271 24.4062 19.0312 24.4062 18.625C24.4062 15 27.3437 12.0625 30.9687 12.0625C32.8229 12.0625 34.5 12.8333 35.6875 14.0625L35.7396 14.0417C35.7396 14.0417 36.125 13.9375 36.6562 13.7812C37.5521 13.5208 38.8646 13.125 39.375 12.8438C39.375 12.8438 38.8438 14.8542 37.2083 16C37.1562 16.0417 37.1042 16.0729 37.0521 16.1042C37.0521 16.1042 37.1146 16.1042 37.2292 16.0938C37.7292 16.0729 39.1771 15.9375 40.5104 15.2188C40.4792 15.2917 39.1042 17.125 37.5312 18.4271Z" fill="#020202"/>
</svg>
